<?xml version="1.0" encoding="UTF-8" standalone="no"?>
<!DOCTYPE svg PUBLIC "-//W3C//DTD SVG 1.1//EN" "http://www.w3.org/Graphics/SVG/1.1/DTD/svg11.dtd">
<svg width="100%" height="100%" viewBox="0 0 3000 3000" version="1.1" xmlns="http://www.w3.org/2000/svg" xmlns:xlink="http://www.w3.org/1999/xlink" xml:space="preserve" xmlns:serif="http://www.serif.com/" style="fill-rule:evenodd;clip-rule:evenodd;stroke-linecap:round;stroke-linejoin:round;stroke-miterlimit:1.5;">
    <g transform="matrix(1,0,0,1,-26642.8,-9929.52)">
        <g id="D8-logo-color" serif:id="D8 logo color" transform="matrix(1,0,0,1,26642.8,9929.52)">
            <rect x="0" y="0" width="3000" height="3000" style="fill:rgb(91,111,245);"/>
            <g transform="matrix(1.27324,0.587083,-0.587083,1.27324,-18896.3,-10486.6)">
                <path d="M16325.3,914.488C16325.3,914.488 16396.5,970.651 16450.5,1120.23C16455.1,1133.07 16489.3,1124.06 16487.1,1117.17C16453.5,1010.71 16408.7,872.63 16364.3,864.232C16290.5,850.273 16325.3,914.488 16325.3,914.488Z" style="stroke:black;stroke-width:14.86px;"/>
            </g>
            <g transform="matrix(1.18398,0.751005,-0.751005,1.18398,-17192.1,-12971.2)">
                <path d="M16068.1,1048.98C16090.9,1366.1 16122.2,1424.4 16059.2,1622C15995.9,1820.64 15979,1942.26 15999.7,2042.1C16003.6,2060.94 16202.4,2086.38 16285.9,2093.68C16555.3,2117.25 17163.6,2145.72 17626.2,2075.96C17851.6,2041.97 17990.7,1964.05 18016.5,1911.85C18027.9,1888.83 17983.8,1765.81 17944.1,1727.95C17908.5,1693.97 17869.4,1657.17 17751.8,1656.37C17590.6,1655.27 17181.3,1594.73 16797,1213.01C16748.8,1165.08 16722.6,1106.39 16702.2,1061.09C16687,1027.21 16636.7,885.814 16585.2,872.42C16530.7,858.233 16466.3,1053.47 16400.7,1072.42C16307.2,1099.41 16177.1,1039.49 16109.6,1023.06C16074.3,1014.47 16067.1,1035.14 16068.1,1048.98Z" style="fill:rgb(237,215,135);stroke:black;stroke-width:23.77px;"/>
            </g>
            <g transform="matrix(1.18398,0.751005,-0.751005,1.18398,-17192.1,-12971.2)">
                <path d="M16400.7,1072.42C16400.7,1072.42 16598.6,1015.93 16641.1,1081.64C16683.5,1147.36 16689.7,1158.42 16719,1194.73C16883.6,1397.9 17050.9,1514.99 17264.5,1595.64C17455.9,1667.94 17512.3,1669.81 17512.3,1669.81C17512.3,1669.81 17530.3,1665.88 17519,1627.72" style="fill:none;stroke:black;stroke-width:23.77px;"/>
            </g>
            <g transform="matrix(1.18398,0.751005,-0.751005,1.18398,-17192.1,-12971.2)">
                <path d="M16009.2,1855.03C16009.2,1855.03 16630.2,1973.47 17334.9,1911.95C17683.1,1881.55 17958.6,1813.04 17966.1,1761.79" style="fill:none;stroke:black;stroke-width:23.77px;"/>
            </g>
            <g transform="matrix(0.665076,0.699499,-0.489814,1.2099,-8800.04,-12560.9)">
                <path d="M16832.8,1547.52L16979.4,1446.02" style="fill:none;stroke:black;stroke-width:61.46px;"/>
            </g>
            <g transform="matrix(1.01253,0.759419,-0.630077,1.17804,-14429,-13349.3)">
                <path d="M16971.1,1621.02L17066.1,1523.95" style="fill:none;stroke:black;stroke-width:59.68px;"/>
            </g>
            <g transform="matrix(1.21217,0.739656,-0.790262,1.19978,-17650.8,-13075.6)">
                <path d="M17254,1740.23L17311.5,1648.31" style="fill:none;stroke:black;stroke-width:59.38px;"/>
            </g>
            <g transform="matrix(1.23618,0.722677,-0.844457,1.23386,-17902.4,-12663.1)">
                <path d="M17389.5,1755.65L17423.9,1668.82" style="fill:none;stroke:black;stroke-width:59.06px;"/>
            </g>
            <g transform="matrix(0.508572,0.171716,-0.504017,1.49275,-3139.04,-1489.64)">
                <path d="M9029.3,89.932C9235.99,89.279 9015.93,566.554 9015.93,566.554L8936.73,566.554C8936.73,566.554 8754.53,86.228 8943.55,87.811"/>
            </g>
            <g transform="matrix(0.391509,0.18419,-0.678923,1.49641,1387.7,-685.638)">
                <path d="M1087.56,1088.34C1087.56,1088.34 1119.13,1368.88 2678.16,1304.37" style="fill:none;stroke:black;stroke-width:20.74px;"/>
            </g>
            <g transform="matrix(0.867706,0.256781,-0.522791,1.90496,314.209,-326.868)">
                <path d="M2055.77,837.452C2055.77,824.861 2033.46,814.639 2005.98,814.639L1910.78,814.639C1883.3,814.639 1860.99,824.861 1860.99,837.452C1860.99,850.042 1883.3,860.265 1910.78,860.265L2005.98,860.265C2033.46,860.265 2055.77,850.042 2055.77,837.452Z" style="stroke:black;stroke-width:6.73px;"/>
            </g>
            <g transform="matrix(1.1374,1.21219,-1.21219,1.1374,-6967.05,-10171.5)">
                <circle cx="8239.8" cy="1060.99" r="189.509"/>
            </g>
            <g transform="matrix(0.635727,0.677531,-0.677531,0.635727,-3400.64,-5233.74)">
                <circle cx="8239.8" cy="1060.99" r="189.509" style="fill:none;stroke:rgb(237,215,135);stroke-width:26.91px;"/>
            </g>
        </g>
    </g>
</svg>
